<?xml version="1.0" encoding="utf-8"?>
<!-- Generator: Adobe Illustrator 25.4.1, SVG Export Plug-In . SVG Version: 6.00 Build 0)  -->
<svg version="1.1" id="ELEMENTOS" xmlns="http://www.w3.org/2000/svg" xmlns:xlink="http://www.w3.org/1999/xlink" x="0px" y="0px"
	 viewBox="0 0 400 400" style="enable-background:new 0 0 400 400;" xml:space="preserve">
<style type="text/css">
	.st0{opacity:0.11;fill:#002A56;}
	.st1{fill:#80E4FF;stroke:#00B5FB;stroke-width:2;stroke-linecap:round;stroke-linejoin:round;stroke-miterlimit:10;}
	.st2{fill:none;stroke:#FFA13A;stroke-width:2;stroke-linecap:round;stroke-linejoin:round;stroke-miterlimit:10;}
	.st3{fill:#0071C6;}
	.st4{fill:#00B5FB;stroke:#80E4FF;stroke-width:2;stroke-miterlimit:10;}
	.st5{fill:none;stroke:#0071C6;stroke-width:2;stroke-miterlimit:10;}
	.st6{fill:#FFA13A;stroke:#0071C6;stroke-width:2;stroke-miterlimit:10;}
	.st7{fill:#FFFFFF;}
	.st8{fill:none;stroke:#00B5FB;stroke-width:2;stroke-linecap:round;stroke-linejoin:round;stroke-miterlimit:10;}
	.st9{fill:none;stroke:#002A56;stroke-width:6;stroke-linecap:round;stroke-linejoin:round;stroke-miterlimit:10;}
	.st10{fill:#00B5FB;stroke:#00B5FB;stroke-width:2;stroke-linecap:round;stroke-linejoin:round;stroke-miterlimit:10;}
	.st11{fill:none;stroke:#FFFFFF;stroke-width:2;stroke-linecap:round;stroke-linejoin:round;stroke-miterlimit:10;}
	.st12{fill:#00B5FB;}
	.st13{fill:#FFFFFF;stroke:#00B5FB;stroke-width:2;stroke-miterlimit:10;}
	.st14{fill:#002A56;}
	.st15{fill:#80E4FF;}
	.st16{fill:#FFFFFF;stroke:#FFFFFF;stroke-width:0.25;stroke-miterlimit:10;}
</style>
<g>
	<ellipse class="st0" cx="203.79" cy="351.64" rx="106.33" ry="14.72"/>
	<g>
		
			<ellipse transform="matrix(0.2336 -0.9723 0.9723 0.2336 158.8599 372.177)" class="st1" cx="315.51" cy="85.32" rx="38.08" ry="38.08"/>
		<path class="st2" d="M353.56,79.82c2.84,0,5.16,1.24,5.16,2.75v0c0,1.51-2.32,2.75-5.16,2.75h-76.13c-2.84,0-5.16-1.24-5.16-2.75
			v0c0-1.51,2.32-2.75,5.16-2.75"/>
	</g>
	<g>
		<path class="st3" d="M148.67,351.72H67.72c-1.33,0-2.51-0.85-2.94-2.11l-16.94-50.43c-0.67-2.01,0.82-4.08,2.94-4.08h64.91
			c1.44,0,2.68,0.99,3.01,2.38l10.82,45.67c0.33,1.4,1.58,2.38,3.01,2.38h16.13c1.71,0,3.1,1.39,3.1,3.1l0,0
			C151.76,350.33,150.38,351.72,148.67,351.72z"/>
		<path class="st4" d="M94.07,323.17c0,2.97-2.41,5.39-5.39,5.39s-5.39-2.41-5.39-5.39c0-2.97,2.41-5.39,5.39-5.39
			S94.07,320.19,94.07,323.17z"/>
	</g>
	<g>
		<path class="st5" d="M222.04,219.44H53.28c-6.6,0-12-5.4-12-12V45.65c0-6.6,5.4-12,12-12h168.77c6.6,0,12,5.4,12,12v161.79
			C234.04,214.04,228.64,219.44,222.04,219.44z"/>
		<line class="st5" x1="89.39" y1="33.63" x2="89.39" y2="218.78"/>
		<path class="st5" d="M196.83,184.93h-74.21c-6.6,0-12-5.4-12-12V131.9c0-6.6,5.4-12,12-12h74.21c6.6,0,12,5.4,12,12v41.03
			C208.83,179.53,203.43,184.93,196.83,184.93z"/>
		
			<ellipse transform="matrix(0.2298 -0.9732 0.9732 0.2298 -10.0844 112.7404)" class="st6" cx="66.18" cy="62.74" rx="8.29" ry="8.29"/>
		<circle class="st6" cx="66.23" cy="91.16" r="8.29"/>
		<circle class="st6" cx="65.55" cy="119.57" r="8.29"/>
		<line class="st5" x1="108.63" y1="49.56" x2="212.82" y2="49.56"/>
		<line class="st5" x1="108.63" y1="56.86" x2="212.82" y2="56.86"/>
		<line class="st5" x1="108.63" y1="65.49" x2="212.82" y2="65.49"/>
	</g>
	<g>
		<path class="st7" d="M234.71,145.78l13.94,15.93c0,0,21.9,8.63,19.91,57.07l-7.96-1.33l-3.32,88.92c0,0-52.42,11.94-66.36-5.31
			l1.99-77.64c0,0-7.96-22.56-1.33-44.46c0,0-23.51-13.33-35.17-40.48c0,0,1.33-21.24,19.24-19.91c0,0,9.29,13.94,15.93,19.91
			C191.58,138.48,208.17,161.71,234.71,145.78z"/>
		<line class="st8" x1="190.48" y1="137.82" x2="173.82" y2="117.28"/>
		<path class="st8" d="M155.63,90.18C155.63,90.17,155.62,90.17,155.63,90.18C155.62,90.17,155.63,90.17,155.63,90.18"/>
		<line class="st8" x1="258.76" y1="261.38" x2="257.11" y2="304.43"/>
		<path class="st8" d="M261.11,216.95c2.29-27.14-5.76-45.89-13.52-57.3c-6.43-9.45-12.65-13.87-12.65-13.87"/>
		<path class="st8" d="M190.79,302.53l1.23-77.65c0.01-0.23-0.02-0.45-0.08-0.67c-0.33-1.21-1.52-5.84-2.26-12.43
			c-0.92-8.23-1.14-19.54,1.87-31.09c0.27-1.01-0.11-2.07-0.98-2.65c-4.92-3.29-21.34-15.57-34.78-40.78"/>
		<path class="st9" d="M260.59,203.47c-32.6-16.09-70.92,1.3-70.92,1.3"/>
		<line class="st8" x1="233.61" y1="235.81" x2="219.89" y2="351.27"/>
		<path class="st10" d="M267.52,257.22c-3.07,5.3-7.34,6.12-8.77,4.16l1.39-36.28c0.01-0.09,0.01-0.17,0.03-0.25
			c0.41-2.71,0.72-5.34,0.93-7.9c2.04-0.14,5.41,0.04,7.99,2.21C269.46,227.7,270.28,252.45,267.52,257.22z"/>
		<path class="st8" d="M269.1,219.16c-0.08-1.85-0.14-2.94-0.14-2.94c-0.79-41.54-16.3-54.34-21.37-57.44
			c-1-0.6-1.59-0.83-1.59-0.83"/>
		<path class="st10" d="M164.84,106.21c-0.56-0.69-0.7-1.64-0.36-2.47l1.66-3.97c2.65-7.52-8.85-19.02-11.5-17.25
			c-1.61,1.07-0.14,5.23,0.98,7.65c-3.7-4.76-18.3-17.22-23.1-7.21c-4.85,10.1,9.65,25.71,12.22,28.37
			c0.26,0.26,0.45,0.59,0.56,0.94c3.02,9.46,6.63,17.76,10.48,24.99c0.24-2.89,2.25-13.19,18.03-19.98L164.84,106.21z M155.63,90.18
			c0.38,0.49,0.65,0.9,0.77,1.19C156.93,92.59,156.35,91.76,155.63,90.18z"/>
		<path class="st10" d="M257.1,304.43l-1.73,45.17c-0.05,1.31-1.12,2.34-2.43,2.34h-87.05c-2.32,0-3.34-2.95-1.49-4.35
			c5.18-3.97,13.85-9.47,23.9-11.28c1.14-0.2,1.96-1.19,1.98-2.34l0.48-30.45l0.02-0.99c1.27,0.45,16.46,5.7,34.1,6.72
			C235.57,309.86,247.18,308.93,257.1,304.43z"/>
		<line class="st11" x1="224.88" y1="309.25" x2="219.89" y2="351.27"/>
		<path class="st8" d="M190.79,302.53c-0.06-0.02-0.09-0.03-0.09-0.03"/>
		<path class="st12" d="M191.58,138.48c0,0,5.48,43.22,56,20.3l-12.87-13L191.58,138.48z"/>
	</g>
	<g>
		
			<ellipse transform="matrix(0.1642 -0.9864 0.9864 0.1642 61.0693 314.5264)" class="st13" cx="216.13" cy="121.23" rx="29.86" ry="29.86"/>
		<path class="st14" d="M243.06,126.88l-48.51-21.93c-2.66-1.2-3.85-4.36-2.65-7.02l0,0c1.2-2.66,4.36-3.85,7.02-2.65l48.51,21.93
			c2.66,1.2,3.85,4.36,2.65,7.02l0,0C248.88,126.89,245.72,128.09,243.06,126.88z"/>
		<g>
			<path class="st14" d="M197.86,112.52c-2.51,5.7-8.21,8.71-12.74,6.72c-4.53-1.99-6.17-8.22-3.66-13.93
				c2.51-5.7,8.21-8.71,12.74-6.72C198.73,100.58,200.37,106.82,197.86,112.52z"/>
			<path class="st15" d="M194.93,111.23c-1.97,4.48-6.45,6.85-10.01,5.28c-3.56-1.56-4.85-6.47-2.88-10.95s6.45-6.85,10.01-5.28
				C195.61,101.85,196.9,106.75,194.93,111.23z"/>
			<path class="st11" d="M184.71,105.45c0,0-2.83,6.06,2.08,8.41"/>
			<ellipse class="st16" cx="193.32" cy="106.83" rx="1.35" ry="1.45"/>
		</g>
		<g>
			<path class="st14" d="M213.93,120.04c-2.84,6.48-9.32,9.89-14.46,7.63c-5.14-2.26-7.01-9.34-4.16-15.82
				c2.84-6.48,9.32-9.89,14.46-7.63C214.91,106.48,216.78,113.56,213.93,120.04z"/>
			<path class="st15" d="M210.6,118.57c-2.24,5.09-7.33,7.78-11.37,6c-4.04-1.78-5.51-7.34-3.27-12.44c2.24-5.09,7.33-7.78,11.37-6
				C211.38,107.92,212.84,113.48,210.6,118.57z"/>
			<path class="st11" d="M198.93,112.58c0,0-2.83,6.06,2.08,8.41"/>
			<path class="st16" d="M208.88,113.95c0-0.8-0.6-1.45-1.35-1.45s-1.35,0.65-1.35,1.45c0,0.8,0.6,1.45,1.35,1.45
				S208.88,114.76,208.88,113.95z"/>
		</g>
	</g>
</g>
</svg>
